# xmcd CD database file
#
# Track frame offsets:
#	150
#	18012
#	33087
#	53112
#	68110
#	82652
#	99727
#	116432
#	130490
#	151980
#	169480
#	183600
#	194812
#	216337
#	237402
#	252025
#	269910
#
# Disc length: 3840 seconds
#
# Revision: 1
# Processed by: cddbd v1.5.2PL0 Copyright (c) Steve Scherf et al.
# Submitted via: CDex 1.51
#
DISCID=f40efe11
DTITLE=Kenny Neal - Devil Child Plus
DYEAR=1900
DGENRE=Blues
TTITLE0=Any Fool Will Do
TTITLE1=Bad Check
TTITLE2=Our Love Is Running Out
TTITLE3=Can't Have Your Cake (And Eat It Too)
TTITLE4=Devil Child
TTITLE5=The Son I Never Knew
TTITLE6=Oh My Way To Heaven
TTITLE7=Yack Yack Yack
TTITLE8=Change My Way Of Livin'
TTITLE9=I Owe It All To You
TTITLE10=The Further We Go
TTITLE11=Early One Morning (Acoustic Version)
TTITLE12=Outside Lokking In
TTITLE13=Caught Your Back Door Man
TTITLE14=Don't Dip In My Business
TTITLE15=Bio On The Bayou
TTITLE16=Evalina
EXTD=
EXTT0=
EXTT1=
EXTT2=
EXTT3=
EXTT4=
EXTT5=
EXTT6=
EXTT7=
EXTT8=
EXTT9=
EXTT10=
EXTT11=
EXTT12=
EXTT13=
EXTT14=
EXTT15=
EXTT16=
PLAYORDER=
